<svg width="341" height="91" viewBox="0 0 341 91" fill="none" xmlns="http://www.w3.org/2000/svg">
<path d="M83.128 15.336C83.272 15.096 82.936 14.712 82.408 14.472C81.88 14.184 81.4 14.232 81.304 14.52C81.112 15 80.824 17.784 80.584 20.568C79.096 20.376 77.608 20.28 76.168 20.28C75.256 20.28 74.392 20.28 73.576 20.376C64.168 21.096 56.008 25.896 56.008 33.144C56.008 34.104 56.152 35.112 56.44 36.168C58.36 42.552 65.56 47.88 72.424 47.4C75.064 47.16 75.736 45.528 73.96 46.056C73.528 46.2 72.952 46.392 72.376 46.44C66.136 46.824 59.752 41.64 58.264 36.648C57.976 35.64 57.832 34.68 57.832 33.768C57.832 26.904 65.752 22.44 74.68 21.768C75.544 21.72 76.408 21.672 77.32 21.672C78.376 21.672 79.432 21.72 80.488 21.816C80.344 23.304 80.248 24.744 80.2 25.656C79.816 31.992 79.288 42.6 79.192 49.464V51.432C75.208 53.592 73.672 55.272 73.096 56.76C72.808 57.912 73 59.064 73.864 60.12C74.2 60.504 74.728 60.984 75.256 61.32C76.888 62.52 79.192 63.048 81.64 63.048C82.12 63.048 82.6 63.048 83.08 63C84.232 62.952 85.432 62.76 86.44 62.472C90.76 61.512 95.272 59.304 98.44 55.992C100.936 53.496 102.712 50.376 103.72 47.016L103.816 46.488L105.832 46.152L112.84 45.24C113.224 45.192 113.272 45.144 113.032 44.808C112.792 44.568 112.216 44.328 110.536 44.328C109.192 44.328 107.224 44.472 104.152 44.904L104.296 43.896C104.392 43.224 104.392 42.504 104.392 41.832C104.392 37.896 103.096 33.864 100.12 30.216C95.992 25.272 89.08 22.104 82.36 20.856C82.552 18.504 82.792 16.152 83.128 15.336ZM98.632 30.216C101.368 33.72 102.616 37.656 102.616 41.496C102.616 42.744 102.472 43.992 102.232 45.192H102.184L101.896 45.288C92.488 46.872 85.624 48.744 80.968 50.712C81.016 50.568 80.968 50.424 80.968 50.28C80.968 43.464 81.592 33.336 82.072 26.232C82.12 25.416 82.168 23.832 82.312 22.056C88.552 23.016 94.696 25.752 98.632 30.216ZM80.68 59.16C80.968 59.16 81.208 58.968 81.112 58.728L81.064 58.488C80.968 58.392 80.872 57.96 80.872 54.504V52.632C85.096 50.664 91.48 48.696 100.552 47.016L101.704 46.872L101.608 47.112C100.696 49.944 99.016 52.632 96.856 54.84C93.64 58.056 89.272 60.168 85.192 61.128C83.944 61.368 82.888 61.56 81.832 61.608C81.016 61.704 80.152 61.704 79.528 61.656C77.896 61.56 76.744 61.128 76.024 60.696C75.112 59.976 74.584 59.016 74.968 57.768C75.256 56.376 76.744 54.984 79.24 53.544C79.384 55.08 79.192 59.064 80.68 59.16ZM118.638 50.568C121.95 50.376 125.022 48.024 126.366 45.24C127.038 43.896 127.23 42.792 126.126 43.944C124.11 46.056 120.75 49.416 116.238 49.416C114.558 49.416 112.878 47.88 112.734 46.968C114.414 46.968 116.478 45.816 117.102 44.28C117.63 42.888 116.238 41.448 114.75 41.448C112.398 41.544 110.958 43.704 110.958 45.816C110.958 46.296 111.054 46.776 111.198 47.208C112.158 50.184 115.806 50.712 118.638 50.568ZM115.518 43.08C116.046 43.608 114.702 44.904 112.686 45.816C112.638 44.616 114.51 42.072 115.518 43.08ZM125.749 48.696C125.797 49.464 127.477 49.896 127.429 49.272L127.477 48.168C128.389 46.152 132.037 43.848 135.589 43.464C135.493 44.04 135.445 44.568 135.445 45.096C135.445 45.96 135.589 46.776 136.069 47.496C136.933 48.744 138.469 49.32 139.861 49.32C143.221 49.32 146.341 46.776 147.493 45.288C148.213 44.376 148.021 43.32 147.829 43.416C146.293 44.184 142.117 47.976 139.141 47.976C138.517 47.976 137.989 47.832 137.509 47.448C136.885 46.536 137.413 44.712 137.413 43.896C137.413 43.176 136.549 42.312 135.637 42.216C132.949 41.928 129.493 43.656 127.861 44.856L127.957 43.224C128.005 42.936 127.573 42.504 127.189 42.264C126.709 42.072 126.229 42.12 126.229 42.456L125.749 47.256C125.653 47.832 125.701 48.312 125.749 48.696ZM146.795 48.696C146.843 49.464 148.524 49.896 148.476 49.272L148.524 48.168C149.436 46.152 153.084 43.848 156.636 43.464C156.54 44.04 156.492 44.568 156.492 45.096C156.492 45.96 156.636 46.776 157.116 47.496C157.98 48.744 159.516 49.32 160.908 49.32C164.268 49.32 167.388 46.776 168.54 45.288C169.26 44.376 169.068 43.32 168.876 43.416C167.34 44.184 163.164 47.976 160.188 47.976C159.564 47.976 159.036 47.832 158.556 47.448C157.932 46.536 158.46 44.712 158.46 43.896C158.46 43.176 157.596 42.312 156.684 42.216C153.996 41.928 150.54 43.656 148.908 44.856L149.004 43.224C149.052 42.936 148.62 42.504 148.236 42.264C147.755 42.072 147.275 42.12 147.275 42.456L146.795 47.256C146.699 47.832 146.747 48.312 146.795 48.696ZM168.466 48.888C169.378 49.896 170.674 50.184 171.874 50.136C175.186 49.992 179.554 46.2 180.466 44.52C181.042 43.464 180.562 43.176 180.37 43.368C178.93 44.808 173.842 48.648 170.866 48.648C170.338 48.648 169.858 48.504 169.474 48.216C168.754 47.592 169.714 42.168 170.098 41.784C170.146 41.544 169.858 41.16 169.33 40.968C168.754 40.824 168.274 40.872 168.226 41.112C167.698 41.928 167.41 43.416 167.41 44.904C167.41 46.488 167.746 48.12 168.466 48.888ZM169.474 37.752C169.906 37.992 170.482 37.992 170.626 37.8C170.77 37.56 171.154 36.504 171.25 36.264C171.394 35.976 171.394 35.64 171.394 35.448C171.49 35.208 171.106 34.824 170.482 34.68C170.002 34.488 169.474 34.584 169.474 34.872L169.378 35.592C169.282 35.832 168.946 36.792 168.85 36.936C168.61 37.128 168.898 37.56 169.474 37.752ZM179.612 50.088C180.332 50.376 181.485 50.52 182.685 50.52C183.933 50.52 185.181 50.376 186.045 50.136C187.293 49.8 188.205 48.456 187.148 47.544C186.189 46.776 184.749 46.056 182.925 45.048C181.965 44.472 180.861 43.992 181.149 43.32C181.677 42.072 186.045 41.256 187.821 40.632C188.205 40.152 187.245 39.24 186.477 39.336C184.029 39.672 178.796 41.208 179.18 43.752C179.372 45.192 180.716 45.672 181.965 46.392C182.925 46.92 184.749 47.832 185.949 48.456C184.701 48.744 182.781 48.984 181.245 48.984C180.62 48.984 180.092 48.936 179.66 48.84C178.604 48.6 179.036 49.8 179.612 50.088ZM221.494 44.376C221.782 44.712 222.406 45.048 222.79 45C228.07 43.944 234.886 42.984 241.51 42.648C241.414 43.224 241.27 44.04 241.174 45C241.078 45.672 240.982 46.44 240.934 47.304H240.886L240.598 47.976C237.91 53.544 230.902 60.168 223.51 60.216C215.638 60.264 210.79 53.688 210.79 44.088C210.79 43.416 210.79 42.744 210.838 42.072C211.51 31.752 219.622 20.856 229.462 19.848C229.942 19.8 230.374 19.8 230.854 19.8C234.07 19.8 237.142 20.856 238.294 23.736C238.582 24.456 238.774 25.368 238.774 26.328C238.774 28.776 237.67 31.704 234.838 33.96C234.118 34.536 235.462 35.016 236.854 33.864C239.35 31.896 240.406 29.256 240.406 26.856C240.406 25.32 239.974 23.832 239.206 22.68C236.902 19.272 233.302 18.024 229.462 18.216C217.558 18.888 209.494 31.32 209.062 42.168C208.582 54.744 215.35 61.848 224.518 61.608C231.382 61.416 237.046 56.952 240.214 52.728L240.502 52.296C240.406 53.832 240.358 55.416 240.358 57C240.358 60.648 240.598 64.152 241.078 66.648C241.126 67.032 241.558 67.416 242.086 67.608C242.518 67.8 242.854 67.656 242.806 67.32C242.23 64.296 242.038 61.656 242.038 59.064C242.038 55.752 242.326 52.584 242.47 49.032L242.566 48.312L242.71 48.168C243.43 46.104 243.814 44.184 243.478 42.696C243.478 42.696 243.478 42.648 243.526 42.6C244.39 42.6 245.254 42.552 246.118 42.552C246.982 42.552 247.846 42.6 248.662 42.6C248.998 42.552 249.142 42.264 248.95 41.832C248.662 41.448 248.182 41.16 247.75 41.16C246.742 41.112 245.878 41.112 244.966 41.112C236.758 41.112 228.022 42.264 221.494 43.512C221.11 43.608 221.11 43.992 221.494 44.376ZM255.536 49.896C257.504 49.896 258.896 48.216 259.856 46.824C260.528 48.408 262.016 49.56 263.888 49.56C267.2 49.752 269.648 47.16 270.608 45.672C271.184 44.76 271.232 43.32 270.8 43.896C269.216 45.48 266.336 48.024 263.024 48.168C261.68 48.024 261.344 46.872 261.152 45.72C261.152 44.856 261.2 44.088 261.248 43.752C261.344 43.032 259.664 42.168 259.52 42.84C259.136 44.568 255.92 49.656 253.952 48.312C253.424 47.976 253.232 47.208 253.232 46.344C253.232 45.096 253.664 43.704 254.336 43.272C254.576 43.128 254.672 42.84 254.288 42.456C253.904 42.024 253.376 41.784 252.992 41.88C252.56 42.024 252.272 42.456 252.032 42.936C251.648 43.608 251.504 44.424 251.504 45.192C251.504 45.816 251.6 46.44 251.792 47.016C252.32 48.648 253.952 49.896 255.536 49.896ZM269.983 48.696C270.031 49.464 271.711 49.896 271.663 49.272L271.711 48.168C272.623 46.152 276.271 43.848 279.823 43.464C279.727 44.04 279.679 44.568 279.679 45.096C279.679 45.96 279.823 46.776 280.303 47.496C281.167 48.744 282.703 49.32 284.095 49.32C287.455 49.32 290.575 46.776 291.727 45.288C292.447 44.376 292.255 43.32 292.063 43.416C290.527 44.184 286.351 47.976 283.375 47.976C282.751 47.976 282.223 47.832 281.743 47.448C281.119 46.536 281.647 44.712 281.647 43.896C281.647 43.176 280.783 42.312 279.871 42.216C277.183 41.928 273.727 43.656 272.095 44.856L272.191 43.224C272.239 42.936 271.807 42.504 271.423 42.264C270.943 42.072 270.463 42.12 270.463 42.456L269.983 47.256C269.887 47.832 269.935 48.312 269.983 48.696ZM291.222 49.128C291.75 49.464 292.326 49.608 292.95 49.608C295.494 49.608 298.662 47.16 300.006 45.96C300.63 47.688 301.83 48.6 303.414 48.984C305.43 49.464 308.742 47.928 309.942 46.728C312.582 44.088 311.862 42.888 311.046 43.704C309.318 45.624 305.19 48.072 302.742 47.592C301.878 47.352 301.638 46.392 301.686 45.576C301.782 44.664 302.214 43.8 302.454 43.08C302.79 42.504 301.158 41.448 300.87 41.976L300.054 43.08H300.006C298.806 42.552 297.462 42.264 296.118 42.264C294.438 42.264 292.806 42.696 291.51 43.56C290.31 44.376 289.782 45.432 289.782 46.488C289.782 47.496 290.262 48.408 291.222 49.128ZM292.086 48.072C291.366 48.024 291.078 47.496 291.222 46.92C291.75 44.712 294.918 43.8 297.318 43.8C298.038 43.8 298.71 43.896 299.19 44.04C297.51 45.816 294.39 47.784 292.086 48.072ZM323.785 60.408C324.313 60.504 324.505 60.312 324.361 59.928C324.265 59.64 323.881 59.304 323.593 59.16H323.545L323.449 59.064C323.305 58.824 323.161 58.248 322.873 57.24C322.633 56.136 322.489 54.696 322.441 53.112C322.297 51.72 322.297 50.232 322.297 48.648C322.297 46.488 322.345 44.232 322.441 41.976C322.489 40.152 322.585 38.28 322.777 35.88C322.825 35.064 323.209 33.72 323.305 32.76C323.545 30.504 324.073 24.84 324.121 22.68C324.025 21.96 322.441 21.096 322.297 21.816C322.249 21.912 321.337 28.776 321.001 32.856L320.905 34.584C320.329 37.128 319.705 39.576 318.697 42.216L318.313 42.072C317.017 41.736 316.057 41.64 315.097 41.64C313.033 41.64 311.641 42.312 310.681 43.224C310.057 43.848 309.673 44.76 309.673 45.672C309.673 46.68 310.153 47.736 311.305 48.648C312.409 49.464 313.321 49.608 314.233 49.608C317.593 49.368 319.561 45 320.569 42.312V44.04C320.569 45.336 320.521 46.68 320.521 47.928C320.521 49.464 320.569 50.952 320.665 52.296C320.713 53.928 320.905 55.416 321.145 56.568C321.337 57.624 321.721 58.728 322.393 59.496C322.729 59.88 323.257 60.264 323.785 60.408ZM313.225 48.312C312.697 48.312 312.313 48.168 311.977 47.88C311.641 47.64 311.401 47.112 311.401 46.488C311.401 45.864 311.641 45.144 312.265 44.472C312.985 43.704 314.137 43.176 316.201 43.176C316.777 43.176 317.449 43.224 318.169 43.32L318.121 43.416C317.113 45.432 315.577 48.072 313.225 48.312ZM327.56 48.888C328.472 49.896 329.768 50.184 330.968 50.136C334.28 49.992 338.648 46.2 339.56 44.52C340.136 43.464 339.656 43.176 339.464 43.368C338.024 44.808 332.936 48.648 329.96 48.648C329.432 48.648 328.952 48.504 328.568 48.216C327.848 47.592 328.808 42.168 329.192 41.784C329.24 41.544 328.952 41.16 328.424 40.968C327.848 40.824 327.368 40.872 327.32 41.112C326.792 41.928 326.504 43.416 326.504 44.904C326.504 46.488 326.84 48.12 327.56 48.888ZM328.568 37.752C329 37.992 329.576 37.992 329.72 37.8C329.864 37.56 330.248 36.504 330.344 36.264C330.488 35.976 330.488 35.64 330.488 35.448C330.584 35.208 330.2 34.824 329.576 34.68C329.096 34.488 328.568 34.584 328.568 34.872L328.472 35.592C328.376 35.832 328.04 36.792 327.944 36.936C327.704 37.128 327.992 37.56 328.568 37.752Z" fill="#CC9F5B"/>
<path fill-rule="evenodd" clip-rule="evenodd" d="M10.1814 14.1996C10.1814 17.3991 10.1814 17.3991 17.118 17.6598C23.8146 17.9109 24.1841 17.9829 27.8095 19.7452C32.6926 22.1185 36.5846 26.16 38.6033 30.9523C39.8309 33.8675 40.0555 35.0999 40.0555 38.9295C40.0555 42.7592 39.8309 43.9916 38.6033 46.9068C35.5438 54.1705 28.3345 59.4515 20.5433 60.1359C16.8335 60.4615 16.8335 60.4615 16.8335 45.7957C16.8335 31.1294 16.8335 31.1294 15.7226 31.1294C15.0727 31.1294 13.6912 32.074 12.3965 33.403C10.1814 35.6761 10.1814 35.6761 10.1814 51.3378V67L17.2173 66.7207C27.8985 66.2975 32.7735 64.3857 38.9293 58.207C49.8316 47.2626 49.6694 30.2563 38.5583 19.3265C32.316 13.1866 26.1485 11 15.0722 11C10.1814 11 10.1814 11 10.1814 14.1996ZM12.484 21.9001C11.0769 22.3208 8.72868 23.5693 7.26572 24.6739C0.487733 29.7923 -1.88605 38.8334 1.58789 46.2969C2.88812 49.0889 5.78947 52.7685 6.69108 52.7685C7.00015 52.7685 7.12552 49.5604 7.02215 44.3011C6.85534 35.8331 6.85534 35.8331 8.40272 33.3708C10.5411 29.9674 13.3483 28.1311 16.9763 27.7633C20.8125 27.3738 23.9769 28.2896 26.1219 30.4103C27.7481 32.0181 28.0234 32.1047 31.5449 32.1198C34.1817 32.1313 35.2542 31.9537 35.2522 31.5068C35.2481 30.4566 31.5449 25.9929 29.2504 24.2718C25.2024 21.2348 18.0775 20.2273 12.484 21.9001ZM20.4154 38.9295C20.4154 42.2006 20.4154 42.2006 25.0207 42.2006C27.5536 42.2006 29.626 42.3827 29.626 42.6052C29.626 42.8281 28.9634 44.0379 28.1528 45.2945C26.631 47.6546 24.2706 49.4155 21.8226 50.0158C20.4671 50.349 20.4154 50.4823 20.4154 53.6436C20.4154 56.9262 20.4154 56.9262 22.2243 56.6374C29.5416 55.4699 35.8713 48.7839 36.7162 41.331C37.3972 35.3274 37.8726 35.6585 28.5689 35.6585C20.4154 35.6585 20.4154 35.6585 20.4154 38.9295Z" fill="#CC9F5B"/>
</svg>
